<?xml version="1.0" encoding="utf-8"?>
<!-- Generator: Adobe Illustrator 27.5.0, SVG Export Plug-In . SVG Version: 6.00 Build 0)  -->
<svg version="1.1" xmlns="http://www.w3.org/2000/svg" xmlns:xlink="http://www.w3.org/1999/xlink" x="0px" y="0px"
	 viewBox="0 0 1500 9760.3" style="enable-background:new 0 0 1500 9760.3;" xml:space="preserve">
<style type="text/css">
	.st0{opacity:0.5;}
	.st1{opacity:7.000000e-02;fill:#590000;}
	.st2{fill:#FFFFFF;stroke:#000000;stroke-miterlimit:10;}
	.st3{fill:none;stroke:#000000;stroke-miterlimit:10;}
	.st4{clip-path:url(#SVGID_00000034773728380781900750000000982474655117224380_);}
	.st5{clip-path:url(#SVGID_00000044178180168633894970000005489229953371343498_);}
	.st6{clip-path:url(#SVGID_00000023961943637272050630000013875756802952897189_);}
	.st7{clip-path:url(#SVGID_00000183222510884564114780000014750834780317173136_);}
	.st8{fill:#FFFFFF;}
	.st9{fill:#FF7B66;}
	.st10{fill:none;stroke:#FF7B66;stroke-width:5;stroke-miterlimit:10;}
	.st11{fill:#231F20;}
	.st12{font-family:'BarlowSemiCondensed-SemiBold';}
	.st13{font-size:59.2045px;}
	.st14{fill:#606060;}
	.st15{fill:none;stroke:#D1232A;stroke-width:5;stroke-miterlimit:10;}
	.st16{fill:#D1232A;}
	.st17{fill:none;}
	.st18{font-family:'ArialMT';}
	.st19{font-size:40px;}
	.st20{fill:none;stroke:#000000;stroke-miterlimit:10;stroke-dasharray:1,1;}
	.st21{font-size:35px;}
	.st22{font-size:50px;}
	.st23{font-size:32px;}
	.st24{font-size:28px;}
	.st25{font-size:29px;}
	.st26{fill:none;stroke:#D1232A;stroke-miterlimit:10;}
	.st27{opacity:0.55;fill:#D1232A;}
	.st28{font-size:160px;}
</style>
<g id="Layer_2" class="st0">
	<rect class="st1" width="115" height="9760.3"/>
	<rect x="377.7" class="st1" width="115" height="9760.3"/>
	<rect x="629.5" class="st1" width="115" height="9760.3"/>
	<rect x="1133.2" class="st1" width="115" height="9760.3"/>
	<rect x="1385" class="st1" width="115" height="9760.3"/>
	<rect x="755.5" class="st1" width="115" height="9760.3"/>
	<rect x="1007.3" class="st1" width="115" height="9760.3"/>
	<rect x="125.9" class="st1" width="115" height="9760.3"/>
	<rect x="251.8" class="st1" width="115" height="9760.3"/>
	<rect x="503.6" class="st1" width="115" height="9760.3"/>
	<rect x="881.4" class="st1" width="115" height="9760.3"/>
	<rect x="1259.1" class="st1" width="115" height="9760.3"/>
</g>
<g id="Layer_1">
	<g>
		<g>
			<rect x="254.2" y="9218.2" class="st2" width="991.7" height="415.7"/>
			<line class="st3" x1="1245.8" y1="9218.2" x2="254.2" y2="9633.8"/>
			<line class="st3" x1="254.2" y1="9218.2" x2="1245.8" y2="9633.8"/>
		</g>
	</g>
	
		<image style="overflow:visible;" width="554" height="686" id="Ejemplo_1.psd" xlink:href="img/Ejemplo 1.png"  transform="matrix(1 0 0 1 255.1824 7502.6182)">
	</image>
	
		<image style="overflow:visible;" width="554" height="685" id="Ejemplo_2.psd" xlink:href="img/Ejemplo 2.png"  transform="matrix(1 0 0 1 740.1824 8316.6182)">
	</image>
	<g>
		<g>
			<circle class="st11" cx="821.8" cy="7582.2" r="42.3"/>
			<text transform="matrix(1 0 0 1 807.1453 7601.1045)" class="st8 st12 st13">3</text>
		</g>
		<g>
			<circle class="st14" cx="821.8" cy="7723" r="42.3"/>
			<text transform="matrix(1 0 0 1 807.0564 7741.9902)" class="st8 st12 st13">0</text>
		</g>
		<g>
			<circle class="st15" cx="825.5" cy="7858.6" r="46"/>
			<g>
				<text transform="matrix(1 0 0 1 812.4604 7877.5801)" class="st16 st12 st13">7</text>
			</g>
		</g>
		<g>
			<circle class="st16" cx="825.5" cy="7989.1" r="46"/>
			<g>
				<text transform="matrix(1 0 0 1 812.8032 8007.2451)" class="st8 st12 st13">B</text>
			</g>
		</g>
	</g>
	
		<image style="overflow:visible;" width="476" height="676" id="Clavadista_1.psd" xlink:href="img/Clavadista 1.png"  transform="matrix(1 0 0 1 82.1824 163.6183)">
	</image>
	
		<image style="overflow:visible;" width="527" height="530" id="Clavadista_2.psd" xlink:href="img/Clavadista 2.png"  transform="matrix(1 0 0 1 1007.1824 140.6183)">
	</image>
	<rect x="254.2" y="781.6" class="st17" width="991.7" height="207.7"/>
	<text transform="matrix(1 0 0 1 262.0215 810.2656)"><tspan x="0" y="0" class="st18 st19">Lorem ipsum dolor sit amet, consectetuer Lorem ipsum </tspan><tspan x="24.4" y="51" class="st18 st19">dolor sit amet, consectetuer adipiscing elit, sed diam </tspan><tspan x="23.3" y="102" class="st18 st19">nonummy nibh euismod Lorem ipsum dolor sit amet, </tspan><tspan x="18.8" y="153" class="st18 st19">consectetuer adipiscing elit, sed diam nonummy nibh </tspan></text>
	<g>
		<g>
			<rect x="251.8" y="1094" class="st2" width="369.4" height="590.2"/>
			<line class="st3" x1="621.2" y1="1094" x2="251.8" y2="1684.2"/>
			<line class="st3" x1="251.8" y1="1094" x2="621.2" y2="1684.2"/>
		</g>
	</g>
	<g>
		<g>
			<rect x="882.6" y="1751.3" class="st2" width="354.7" height="590.2"/>
			<line class="st3" x1="1237.3" y1="1751.3" x2="882.6" y2="2341.5"/>
			<line class="st3" x1="882.6" y1="1751.3" x2="1237.3" y2="2341.5"/>
		</g>
	</g>
	<rect x="755.5" y="1146.1" class="st17" width="492.7" height="486.1"/>
	<text transform="matrix(1 0 0 1 755.4547 1171.1393)"><tspan x="0" y="0" class="st18 st21">Lorem ipsum dolor sit amet, </tspan><tspan x="0" y="48" class="st18 st21">consectetuer Lorem ipsum </tspan><tspan x="0" y="96" class="st18 st21">dolor sit amet, consectetuer </tspan><tspan x="0" y="144" class="st18 st21">adipiscing elit, sed diam no</tspan><tspan x="420.2" y="144" class="st18 st21">-</tspan><tspan x="0" y="192" class="st18 st21">nummy nibh euismod Lorem </tspan><tspan x="0" y="240" class="st18 st21">ipsum dolor sit amet, consecte</tspan><tspan x="472.7" y="240" class="st18 st21">-</tspan><tspan x="0" y="288" class="st18 st21">tuer adipiscing elit, sed diam </tspan><tspan x="0" y="336" class="st18 st21">nonummy nibh euismod Lorem </tspan><tspan x="0" y="384" class="st18 st21">ipsum dolor sit amet, consecte</tspan><tspan x="472.7" y="384" class="st18 st21">-</tspan><tspan x="0" y="432" class="st18 st21">tuer adipiscing elit, sed diam </tspan></text>
	<rect x="251.8" y="1803.4" class="st17" width="498.2" height="486.1"/>
	<text transform="matrix(1 0 0 1 251.818 1828.4554)"><tspan x="0" y="0" class="st18 st21">Lorem ipsum dolor sit amet, </tspan><tspan x="0" y="48" class="st18 st21">consectetuer Lorem ipsum </tspan><tspan x="0" y="96" class="st18 st21">dolor sit amet, consectetuer adi</tspan><tspan x="486.4" y="96" class="st18 st21">-</tspan><tspan x="0" y="144" class="st18 st21">piscing elit, sed diam nonummy </tspan><tspan x="0" y="192" class="st18 st21">nibh euismod Lorem ipsum </tspan><tspan x="0" y="240" class="st18 st21">dolor sit amet, consectetuer adi</tspan><tspan x="486.4" y="240" class="st18 st21">-</tspan><tspan x="0" y="288" class="st18 st21">piscing elit, sed diam nonummy </tspan><tspan x="0" y="336" class="st18 st21">nibh euismod Lorem ipsum </tspan><tspan x="0" y="384" class="st18 st21">dolor sit amet, consectetuer adi</tspan><tspan x="486.4" y="384" class="st18 st21">-</tspan><tspan x="0" y="432" class="st18 st21">piscing elit, sed diam nonummy </tspan></text>
	<text transform="matrix(1 0 0 1 288.6231 2620.9048)" class="st18 st22">De principio a fin: las fases de un clavado</text>
	<g>
		<g>
			<g>
				<rect x="115" y="2727.9" class="st2" width="1270" height="661.8"/>
				<line class="st3" x1="1385" y1="2727.9" x2="115" y2="3389.7"/>
				<line class="st3" x1="115" y1="2727.9" x2="1385" y2="3389.7"/>
			</g>
		</g>
		<g>
			<rect x="747.3" y="2851" class="st17" width="498.2" height="486.1"/>
			<text transform="matrix(1 0 0 1 747.2725 2876.1038)"><tspan x="0" y="0" class="st18 st21">Lorem ipsum dolor sit amet, </tspan><tspan x="0" y="48" class="st18 st21">consectetuer Lorem ipsum </tspan><tspan x="0" y="96" class="st18 st21">dolor sit amet, consectetuer adi</tspan><tspan x="486.4" y="96" class="st18 st21">-</tspan><tspan x="0" y="144" class="st18 st21">piscing elit, sed diam nonummy </tspan><tspan x="0" y="192" class="st18 st21">nibh euismod Lorem ipsum </tspan><tspan x="0" y="240" class="st18 st21">dolor sit amet, consectetuer adi</tspan><tspan x="486.4" y="240" class="st18 st21">-</tspan><tspan x="0" y="288" class="st18 st21">piscing elit, sed diam nonummy </tspan><tspan x="0" y="336" class="st18 st21">nibh euismod Lorem ipsum </tspan><tspan x="0" y="384" class="st18 st21">dolor sit amet, consectetuer adi</tspan><tspan x="486.4" y="384" class="st18 st21">-</tspan><tspan x="0" y="432" class="st18 st21">piscing elit, sed diam nonummy </tspan></text>
			<g>
				<g>
					<path d="M762.2,2814.5h-3.5v-22.4c-0.8,0.8-2,1.6-3.3,2.4c-1.4,0.8-2.6,1.4-3.7,1.8v-3.4c2-0.9,3.7-2,5.2-3.4
						c1.5-1.3,2.5-2.6,3.1-3.8h2.3V2814.5z"/>
					<path d="M773.2,2814.5v-4h4v4H773.2z"/>
					<path d="M787.4,2814.5v-28.6h10.8c1.9,0,3.4,0.1,4.4,0.3c1.4,0.2,2.6,0.7,3.5,1.3c1,0.7,1.7,1.6,2.3,2.8
						c0.6,1.2,0.9,2.5,0.9,3.9c0,2.4-0.8,4.5-2.3,6.2c-1.5,1.7-4.3,2.5-8.4,2.5h-7.3v11.6H787.4z M791.1,2799.5h7.4
						c2.4,0,4.2-0.5,5.2-1.4c1-0.9,1.5-2.2,1.5-3.8c0-1.2-0.3-2.2-0.9-3.1c-0.6-0.9-1.4-1.4-2.4-1.7c-0.6-0.2-1.8-0.3-3.5-0.3h-7.3
						V2799.5z"/>
					<path d="M812.3,2804.1c0-3.8,1.1-6.7,3.2-8.5c1.8-1.5,4-2.3,6.5-2.3c2.9,0,5.2,0.9,7,2.8c1.8,1.9,2.7,4.5,2.7,7.7
						c0,2.7-0.4,4.8-1.2,6.3c-0.8,1.5-2,2.7-3.5,3.6c-1.5,0.8-3.2,1.3-5,1.3c-2.9,0-5.3-0.9-7-2.8
						C813.2,2810.3,812.3,2807.6,812.3,2804.1z M815.9,2804.1c0,2.7,0.6,4.6,1.7,6c1.2,1.3,2.6,2,4.4,2c1.7,0,3.2-0.7,4.4-2
						c1.2-1.3,1.7-3.4,1.7-6.1c0-2.6-0.6-4.5-1.7-5.8c-1.2-1.3-2.6-2-4.3-2c-1.8,0-3.2,0.7-4.4,2
						C816.5,2799.5,815.9,2801.5,815.9,2804.1z"/>
					<path d="M834.4,2808.3l3.5-0.5c0.2,1.4,0.7,2.5,1.6,3.2c0.9,0.7,2.1,1.1,3.7,1.1c1.6,0,2.8-0.3,3.6-1c0.8-0.7,1.2-1.4,1.2-2.3
						c0-0.8-0.3-1.4-1-1.9c-0.5-0.3-1.7-0.7-3.6-1.2c-2.6-0.7-4.4-1.2-5.4-1.7c-1-0.5-1.8-1.1-2.3-2c-0.5-0.8-0.8-1.8-0.8-2.8
						c0-0.9,0.2-1.8,0.6-2.6c0.4-0.8,1-1.4,1.7-2c0.5-0.4,1.3-0.7,2.2-1c0.9-0.3,2-0.4,3-0.4c1.6,0,3.1,0.2,4.3,0.7s2.1,1.1,2.7,1.9
						s1,1.9,1.2,3.2l-3.4,0.5c-0.2-1.1-0.6-1.9-1.4-2.5c-0.7-0.6-1.8-0.9-3.2-0.9c-1.6,0-2.8,0.3-3.5,0.8c-0.7,0.5-1,1.2-1,1.9
						c0,0.5,0.1,0.9,0.4,1.2c0.3,0.4,0.7,0.7,1.3,0.9c0.4,0.1,1.4,0.4,3.1,0.9c2.5,0.7,4.2,1.2,5.2,1.6c1,0.4,1.8,1,2.3,1.8
						c0.6,0.8,0.8,1.8,0.8,3c0,1.2-0.3,2.3-1,3.3s-1.7,1.8-3,2.4s-2.7,0.8-4.4,0.8c-2.7,0-4.7-0.6-6.2-1.7
						C835.7,2812.2,834.8,2810.5,834.4,2808.3z"/>
					<path d="M855.9,2789.9v-4h3.5v4H855.9z M855.9,2814.5v-20.7h3.5v20.7H855.9z"/>
					<path d="M878.3,2806.9l3.5,0.4c-0.4,2.4-1.3,4.2-2.9,5.6c-1.6,1.3-3.5,2-5.7,2c-2.8,0-5.1-0.9-6.8-2.8c-1.7-1.9-2.6-4.5-2.6-8
						c0-2.2,0.4-4.2,1.1-5.9s1.9-2.9,3.4-3.8c1.5-0.8,3.2-1.3,5-1.3c2.3,0,4.1,0.6,5.5,1.7c1.4,1.1,2.4,2.8,2.8,4.9l-3.4,0.5
						c-0.3-1.4-0.9-2.4-1.7-3.1c-0.8-0.7-1.8-1.1-3-1.1c-1.8,0-3.2,0.6-4.3,1.9c-1.1,1.3-1.7,3.3-1.7,6c0,2.8,0.5,4.8,1.6,6.1
						c1.1,1.3,2.5,1.9,4.2,1.9c1.4,0,2.5-0.4,3.5-1.3C877.4,2810,878,2808.7,878.3,2806.9z"/>
					<path d="M884.7,2789.9v-4h3.5v4H884.7z M884.7,2814.5v-20.7h3.5v20.7H884.7z"/>
					<path d="M892.3,2804.1c0-3.8,1.1-6.7,3.2-8.5c1.8-1.5,4-2.3,6.5-2.3c2.9,0,5.2,0.9,7,2.8c1.8,1.9,2.7,4.5,2.7,7.7
						c0,2.7-0.4,4.8-1.2,6.3c-0.8,1.5-2,2.7-3.5,3.6c-1.5,0.8-3.2,1.3-5,1.3c-2.9,0-5.3-0.9-7-2.8
						C893.2,2810.3,892.3,2807.6,892.3,2804.1z M895.9,2804.1c0,2.7,0.6,4.6,1.7,6c1.2,1.3,2.6,2,4.4,2c1.7,0,3.2-0.7,4.4-2
						c1.2-1.3,1.7-3.4,1.7-6.1c0-2.6-0.6-4.5-1.7-5.8c-1.2-1.3-2.6-2-4.3-2c-1.8,0-3.2,0.7-4.4,2
						C896.5,2799.5,895.9,2801.5,895.9,2804.1z M900.1,2791.2l2.6-5.5h4.6l-4.3,5.5H900.1z"/>
					<path d="M915.9,2814.5v-20.7h3.2v2.9c1.5-2.3,3.7-3.4,6.6-3.4c1.2,0,2.4,0.2,3.4,0.7c1,0.4,1.8,1,2.4,1.8
						c0.5,0.7,0.9,1.6,1.1,2.6c0.1,0.7,0.2,1.8,0.2,3.4v12.8h-3.5v-12.6c0-1.4-0.1-2.5-0.4-3.2c-0.3-0.7-0.8-1.3-1.5-1.7
						c-0.7-0.4-1.5-0.6-2.5-0.6c-1.5,0-2.8,0.5-3.9,1.4c-1.1,1-1.6,2.8-1.6,5.4v11.3H915.9z"/>
					<path d="M950.3,2814.5v-28.6h3.8v28.6H950.3z"/>
					<path d="M960.3,2814.5v-20.7h3.2v2.9c1.5-2.3,3.7-3.4,6.6-3.4c1.2,0,2.4,0.2,3.4,0.7c1,0.4,1.8,1,2.4,1.8
						c0.5,0.7,0.9,1.6,1.1,2.6c0.1,0.7,0.2,1.8,0.2,3.4v12.8h-3.5v-12.6c0-1.4-0.1-2.5-0.4-3.2c-0.3-0.7-0.8-1.3-1.5-1.7
						c-0.7-0.4-1.5-0.6-2.5-0.6c-1.5,0-2.8,0.5-3.9,1.4c-1.1,1-1.6,2.8-1.6,5.4v11.3H960.3z"/>
					<path d="M982.6,2789.9v-4h3.5v4H982.6z M982.6,2814.5v-20.7h3.5v20.7H982.6z"/>
					<path d="M1005,2806.9l3.5,0.4c-0.4,2.4-1.3,4.2-2.9,5.6c-1.6,1.3-3.5,2-5.7,2c-2.8,0-5.1-0.9-6.8-2.8c-1.7-1.9-2.6-4.5-2.6-8
						c0-2.2,0.4-4.2,1.1-5.9s1.9-2.9,3.4-3.8c1.5-0.8,3.2-1.3,5-1.3c2.3,0,4.1,0.6,5.5,1.7c1.4,1.1,2.4,2.8,2.8,4.9l-3.4,0.5
						c-0.3-1.4-0.9-2.4-1.7-3.1c-0.8-0.7-1.8-1.1-3-1.1c-1.8,0-3.2,0.6-4.3,1.9c-1.1,1.3-1.7,3.3-1.7,6c0,2.8,0.5,4.8,1.6,6.1
						c1.1,1.3,2.5,1.9,4.2,1.9c1.4,0,2.5-0.4,3.5-1.3C1004.2,2810,1004.7,2808.7,1005,2806.9z"/>
					<path d="M1011.5,2789.9v-4h3.5v4H1011.5z M1011.5,2814.5v-20.7h3.5v20.7H1011.5z"/>
					<path d="M1033.9,2811.9c-1.3,1.1-2.6,1.9-3.8,2.3c-1.2,0.5-2.5,0.7-3.9,0.7c-2.3,0-4-0.6-5.3-1.7c-1.2-1.1-1.8-2.5-1.8-4.3
						c0-1,0.2-1.9,0.7-2.8c0.5-0.8,1.1-1.5,1.8-2c0.7-0.5,1.6-0.9,2.5-1.2c0.7-0.2,1.7-0.4,3.1-0.5c2.8-0.3,4.9-0.7,6.3-1.2
						c0-0.5,0-0.8,0-0.9c0-1.4-0.3-2.4-1-3c-0.9-0.8-2.2-1.2-4-1.2c-1.7,0-2.9,0.3-3.7,0.9c-0.8,0.6-1.4,1.6-1.7,3.1l-3.4-0.5
						c0.3-1.5,0.8-2.7,1.5-3.6c0.7-0.9,1.8-1.6,3.1-2.1c1.4-0.5,2.9-0.7,4.7-0.7c1.8,0,3.2,0.2,4.3,0.6c1.1,0.4,1.9,0.9,2.4,1.6
						c0.5,0.6,0.9,1.4,1.1,2.4c0.1,0.6,0.2,1.7,0.2,3.2v4.7c0,3.3,0.1,5.3,0.2,6.2c0.1,0.9,0.4,1.7,0.9,2.5h-3.7
						C1034.2,2813.8,1034,2812.9,1033.9,2811.9z M1033.6,2804.1c-1.3,0.5-3.2,1-5.7,1.3c-1.4,0.2-2.5,0.4-3.1,0.7
						c-0.6,0.3-1.1,0.6-1.4,1.1c-0.3,0.5-0.5,1.1-0.5,1.7c0,0.9,0.4,1.7,1.1,2.3c0.7,0.6,1.7,0.9,3.1,0.9c1.4,0,2.6-0.3,3.6-0.9
						c1.1-0.6,1.8-1.4,2.3-2.4c0.4-0.8,0.6-2,0.6-3.5V2804.1z"/>
					<path d="M1042.5,2814.5v-28.6h3.5v28.6H1042.5z"/>
				</g>
			</g>
		</g>
	</g>
	<g>
		<g>
			<g>
				<rect x="115" y="3389.7" class="st2" width="1270" height="661.8"/>
				<line class="st3" x1="1385" y1="3389.7" x2="115" y2="4051.5"/>
				<line class="st3" x1="115" y1="3389.7" x2="1385" y2="4051.5"/>
			</g>
		</g>
		<g>
			<rect x="747.3" y="3512.9" class="st17" width="498.2" height="486.1"/>
			<text transform="matrix(1 0 0 1 747.2725 3537.938)"><tspan x="0" y="0" class="st18 st21">Lorem ipsum dolor sit amet, </tspan><tspan x="0" y="48" class="st18 st21">consectetuer Lorem ipsum </tspan><tspan x="0" y="96" class="st18 st21">dolor sit amet, consectetuer adi</tspan><tspan x="486.4" y="96" class="st18 st21">-</tspan><tspan x="0" y="144" class="st18 st21">piscing elit, sed diam nonummy </tspan><tspan x="0" y="192" class="st18 st21">nibh euismod Lorem ipsum </tspan><tspan x="0" y="240" class="st18 st21">dolor sit amet, consectetuer adi</tspan><tspan x="486.4" y="240" class="st18 st21">-</tspan><tspan x="0" y="288" class="st18 st21">piscing elit, sed diam nonummy </tspan><tspan x="0" y="336" class="st18 st21">nibh euismod Lorem ipsum </tspan><tspan x="0" y="384" class="st18 st21">dolor sit amet, consectetuer adi</tspan><tspan x="486.4" y="384" class="st18 st21">-</tspan><tspan x="0" y="432" class="st18 st21">piscing elit, sed diam nonummy </tspan></text>
			<text transform="matrix(1 0 0 1 747.2728 3476.3311)" class="st18 st19">2. Despegue</text>
		</g>
	</g>
	<g>
		<g>
			<g>
				<rect x="115" y="4051.5" class="st2" width="1270" height="661.8"/>
				<line class="st3" x1="1385" y1="4051.5" x2="115" y2="4713.4"/>
				<line class="st3" x1="115" y1="4051.5" x2="1385" y2="4713.4"/>
			</g>
		</g>
		<g>
			<rect x="747.3" y="4174.7" class="st17" width="498.2" height="486.1"/>
			<text transform="matrix(1 0 0 1 747.2726 4199.7715)"><tspan x="0" y="0" class="st18 st21">Lorem ipsum dolor sit amet, </tspan><tspan x="0" y="48" class="st18 st21">consectetuer Lorem ipsum </tspan><tspan x="0" y="96" class="st18 st21">dolor sit amet, consectetuer adi</tspan><tspan x="486.4" y="96" class="st18 st21">-</tspan><tspan x="0" y="144" class="st18 st21">piscing elit, sed diam nonummy </tspan><tspan x="0" y="192" class="st18 st21">nibh euismod Lorem ipsum </tspan><tspan x="0" y="240" class="st18 st21">dolor sit amet, consectetuer adi</tspan><tspan x="486.4" y="240" class="st18 st21">-</tspan><tspan x="0" y="288" class="st18 st21">piscing elit, sed diam nonummy </tspan><tspan x="0" y="336" class="st18 st21">nibh euismod Lorem ipsum </tspan><tspan x="0" y="384" class="st18 st21">dolor sit amet, consectetuer adi</tspan><tspan x="486.4" y="384" class="st18 st21">-</tspan><tspan x="0" y="432" class="st18 st21">piscing elit, sed diam nonummy </tspan></text>
			<text transform="matrix(1 0 0 1 747.2728 4138.1646)" class="st18 st19">3. Vuelo</text>
		</g>
	</g>
	<g>
		<g>
			<g>
				<rect x="115" y="4713.4" class="st2" width="1270" height="661.8"/>
				<line class="st3" x1="1385" y1="4713.4" x2="115" y2="5375.2"/>
				<line class="st3" x1="115" y1="4713.4" x2="1385" y2="5375.2"/>
			</g>
		</g>
		<g>
			<rect x="747.3" y="4836.5" class="st17" width="498.2" height="486.1"/>
			<text transform="matrix(1 0 0 1 747.2725 4861.606)"><tspan x="0" y="0" class="st18 st21">Lorem ipsum dolor sit amet, </tspan><tspan x="0" y="48" class="st18 st21">consectetuer Lorem ipsum </tspan><tspan x="0" y="96" class="st18 st21">dolor sit amet, consectetuer adi</tspan><tspan x="486.4" y="96" class="st18 st21">-</tspan><tspan x="0" y="144" class="st18 st21">piscing elit, sed diam nonummy </tspan><tspan x="0" y="192" class="st18 st21">nibh euismod Lorem ipsum </tspan><tspan x="0" y="240" class="st18 st21">dolor sit amet, consectetuer adi</tspan><tspan x="486.4" y="240" class="st18 st21">-</tspan><tspan x="0" y="288" class="st18 st21">piscing elit, sed diam nonummy </tspan><tspan x="0" y="336" class="st18 st21">nibh euismod Lorem ipsum </tspan><tspan x="0" y="384" class="st18 st21">dolor sit amet, consectetuer adi</tspan><tspan x="486.4" y="384" class="st18 st21">-</tspan><tspan x="0" y="432" class="st18 st21">piscing elit, sed diam nonummy </tspan></text>
			<text transform="matrix(1 0 0 1 747.2728 4799.9985)" class="st18 st19">4. Entrada</text>
		</g>
	</g>
	<g>
		<g>
			<g>
				<rect x="813" y="5533.8" class="st2" width="435.2" height="391.3"/>
				<line class="st3" x1="1248.2" y1="5533.8" x2="813" y2="5925.1"/>
				<line class="st3" x1="813" y1="5533.8" x2="1248.2" y2="5925.1"/>
			</g>
		</g>
		<g>
			<g>
				<rect x="251.8" y="5715.5" class="st17" width="490.8" height="136.5"/>
				<text transform="matrix(1 0 0 1 310.8135 5740.5103)"><tspan x="0" y="0" class="st18 st21">Lorem ipsum dolor sit amet, </tspan><tspan x="19.4" y="48" class="st18 st21">consectetuer Lorem ipsum </tspan><tspan x="1.9" y="96" class="st18 st21">dolor sit amet, consectetuer </tspan></text>
			</g>
			<rect x="252.6" y="5606.9" class="st17" width="490" height="93.4"/>
			<text transform="matrix(1 0 0 1 277.8936 5641.2236)"><tspan x="0" y="0" class="st18 st19">¿Han habido accidentes o </tspan><tspan x="-24.4" y="51" class="st18 st19">muertes en competiciones?</tspan></text>
		</g>
	</g>
	<g>
		<g>
			<g>
				<rect x="251.8" y="5977.9" class="st2" width="435.2" height="391.3"/>
				<line class="st3" x1="687" y1="5977.9" x2="251.8" y2="6369.2"/>
				<line class="st3" x1="251.8" y1="5977.9" x2="687" y2="6369.2"/>
			</g>
		</g>
		<g>
			<g>
				<rect x="751.8" y="6159.6" class="st17" width="490.8" height="136.5"/>
				<text transform="matrix(1 0 0 1 751.8182 6184.6401)"><tspan x="0" y="0" class="st18 st21">Lorem ipsum dolor sit amet, </tspan><tspan x="0" y="48" class="st18 st21">consectetuer Lorem ipsum </tspan><tspan x="0" y="96" class="st18 st21">dolor sit amet, consectetuer </tspan></text>
			</g>
			<rect x="752.6" y="6051" class="st17" width="490" height="93.4"/>
			<text transform="matrix(1 0 0 1 752.6396 6085.3535)"><tspan x="0" y="0" class="st18 st19">Otros datos tipo </tspan><tspan x="0" y="51" class="st18 st19">(gráficos quizás)</tspan></text>
		</g>
	</g>
	<g>
		<text transform="matrix(1 0 0 1 444.2872 6626.5977)" class="st18 st22">Cómo se evalúan los saltos</text>
		<text transform="matrix(1 0 0 1 259.8926 6763.2715)" class="st18 st19">Identifiquemos los roles</text>
	</g>
	<g>
		<text transform="matrix(1 0 0 1 251.8181 7434.8804)" class="st18 st19">Veamos dos ejemplos</text>
	</g>
	<rect x="245.5" y="7053.9" class="st17" width="248.5" height="229.7"/>
	<text transform="matrix(1 0 0 1 277.3419 7076.772)"><tspan x="0" y="0" class="st18 st23">Lorem ipsum </tspan><tspan x="-8" y="48" class="st18 st23">dolor sit amet, </tspan><tspan x="0.9" y="96" class="st18 st23">consectetuer </tspan><tspan x="0" y="144" class="st18 st23">Lorem ipsum </tspan><tspan x="-8" y="192" class="st18 st23">dolor sit amet, </tspan></text>
	<g>
		<g>
			<rect x="249.4" y="6794.2" class="st2" width="240.9" height="248.9"/>
			<line class="st3" x1="490.3" y1="6794.2" x2="249.4" y2="7043.1"/>
			<line class="st3" x1="249.4" y1="6794.2" x2="490.3" y2="7043.1"/>
		</g>
	</g>
	<rect x="499" y="7053.9" class="st17" width="248.5" height="229.7"/>
	<text transform="matrix(1 0 0 1 530.7962 7076.772)"><tspan x="0" y="0" class="st18 st23">Lorem ipsum </tspan><tspan x="-8" y="48" class="st18 st23">dolor sit amet, </tspan><tspan x="0.9" y="96" class="st18 st23">consectetuer </tspan><tspan x="0" y="144" class="st18 st23">Lorem ipsum </tspan><tspan x="-8" y="192" class="st18 st23">dolor sit amet, </tspan></text>
	<g>
		<g>
			<rect x="502.8" y="6794.2" class="st2" width="240.9" height="248.9"/>
			<line class="st3" x1="743.7" y1="6794.2" x2="502.8" y2="7043.1"/>
			<line class="st3" x1="502.8" y1="6794.2" x2="743.7" y2="7043.1"/>
		</g>
	</g>
	<rect x="752.5" y="7053.9" class="st17" width="248.5" height="229.7"/>
	<text transform="matrix(1 0 0 1 784.2505 7076.772)"><tspan x="0" y="0" class="st18 st23">Lorem ipsum </tspan><tspan x="-8" y="48" class="st18 st23">dolor sit amet, </tspan><tspan x="0.9" y="96" class="st18 st23">consectetuer </tspan><tspan x="0" y="144" class="st18 st23">Lorem ipsum </tspan><tspan x="-8" y="192" class="st18 st23">dolor sit amet, </tspan></text>
	<g>
		<g>
			<rect x="756.3" y="6794.2" class="st2" width="240.9" height="248.9"/>
			<line class="st3" x1="997.2" y1="6794.2" x2="756.3" y2="7043.1"/>
			<line class="st3" x1="756.3" y1="6794.2" x2="997.2" y2="7043.1"/>
		</g>
	</g>
	<rect x="1005.9" y="7053.9" class="st17" width="248.5" height="229.7"/>
	<text transform="matrix(1 0 0 1 1037.7047 7076.772)"><tspan x="0" y="0" class="st18 st23">Lorem ipsum </tspan><tspan x="-8" y="48" class="st18 st23">dolor sit amet, </tspan><tspan x="0.9" y="96" class="st18 st23">consectetuer </tspan><tspan x="0" y="144" class="st18 st23">Lorem ipsum </tspan><tspan x="-8" y="192" class="st18 st23">dolor sit amet, </tspan></text>
	<g>
		<g>
			<rect x="1009.7" y="6794.2" class="st2" width="240.9" height="248.9"/>
			<line class="st3" x1="1250.6" y1="6794.2" x2="1009.7" y2="7043.1"/>
			<line class="st3" x1="1009.7" y1="6794.2" x2="1250.6" y2="7043.1"/>
		</g>
	</g>
	<rect x="881.4" y="7539.1" class="st17" width="369.3" height="114.9"/>
	<text transform="matrix(1 0 0 1 881.3635 7559.168)"><tspan x="0" y="0" class="st18 st24">Lorem ipsum dolor sit amet, </tspan><tspan x="0" y="36" class="st18 st24">consectetuer Lorem ipsum </tspan><tspan x="0" y="72" class="st18 st24">dolor sit aconsectetuer adi</tspan><tspan x="326.9" y="72" class="st18 st24">-</tspan></text>
	<rect x="881.4" y="7667.4" class="st17" width="369.3" height="114.9"/>
	<text transform="matrix(1 0 0 1 881.3635 7687.4385)"><tspan x="0" y="0" class="st18 st24">Lorem ipsum dolor sit amet, </tspan><tspan x="0" y="37" class="st18 st24">consectetuer Lorem ipsum </tspan><tspan x="0" y="74" class="st18 st24">dolor sit aconsectetuer adi</tspan><tspan x="326.9" y="74" class="st18 st24">-</tspan></text>
	<rect x="881.4" y="7815.7" class="st17" width="369.3" height="114.9"/>
	<text transform="matrix(1 0 0 1 881.3635 7835.709)"><tspan x="0" y="0" class="st18 st24">Lorem ipsum dolor sit amet, </tspan><tspan x="0" y="37" class="st18 st24">consectetuer Lorem ipsum </tspan><tspan x="0" y="74" class="st18 st24">dolor sit aconsectetuer adi</tspan><tspan x="326.9" y="74" class="st18 st24">-</tspan></text>
	<rect x="881.4" y="7953.9" class="st17" width="369.3" height="114.9"/>
	<text transform="matrix(1 0 0 1 881.3635 7973.9785)"><tspan x="0" y="0" class="st18 st24">Lorem ipsum dolor sit amet, </tspan><tspan x="0" y="37" class="st18 st24">consectetuer Lorem ipsum </tspan><tspan x="0" y="74" class="st18 st24">dolor sit aconsectetuer adi</tspan><tspan x="326.9" y="74" class="st18 st24">-</tspan></text>
	<g>
		<circle class="st11" cx="284.4" cy="8559.5" r="42.3"/>
		<text transform="matrix(1 0 0 1 269.6929 8578.3975)" class="st8 st12 st13">3</text>
	</g>
	<g>
		<circle class="st14" cx="284.4" cy="8700.3" r="42.3"/>
		<text transform="matrix(1 0 0 1 269.6041 8719.2832)" class="st8 st12 st13">0</text>
	</g>
	<g>
		<circle class="st15" cx="288" cy="8835.9" r="46"/>
		<g>
			<text transform="matrix(1 0 0 1 275.0081 8854.873)" class="st16 st12 st13">7</text>
		</g>
	</g>
	<g>
		<circle class="st16" cx="288" cy="8966.4" r="46"/>
		<g>
			<text transform="matrix(1 0 0 1 275.3509 8984.5381)" class="st8 st12 st13">B</text>
		</g>
	</g>
	<rect x="343.9" y="8516.4" class="st17" width="369.3" height="114.9"/>
	<text transform="matrix(1 0 0 1 343.9111 8536.4609)"><tspan x="0" y="0" class="st18 st24">Lorem ipsum dolor sit amet, </tspan><tspan x="0" y="36" class="st18 st24">consectetuer Lorem ipsum </tspan><tspan x="0" y="72" class="st18 st24">dolor sit aconsectetuer adi</tspan><tspan x="326.9" y="72" class="st18 st24">-</tspan></text>
	<g>
		<circle class="st11" cx="283.2" cy="8412.8" r="42.3"/>
		<text transform="matrix(1 0 0 1 268.55 8431.7354)" class="st8 st12 st13">3</text>
	</g>
	<rect x="342.8" y="8369.8" class="st17" width="369.3" height="114.9"/>
	<text transform="matrix(1 0 0 1 342.7682 8389.7988)"><tspan x="0" y="0" class="st18 st24">Lorem ipsum dolor sit amet, </tspan><tspan x="0" y="36" class="st18 st24">consectetuer Lorem ipsum </tspan><tspan x="0" y="72" class="st18 st24">dolor sit aconsectetuer adi</tspan><tspan x="326.9" y="72" class="st18 st24">-</tspan></text>
	<rect x="343.9" y="8644.7" class="st17" width="369.3" height="114.9"/>
	<text transform="matrix(1 0 0 1 343.9111 8664.7314)"><tspan x="0" y="0" class="st18 st24">Lorem ipsum dolor sit amet, </tspan><tspan x="0" y="37" class="st18 st24">consectetuer Lorem ipsum </tspan><tspan x="0" y="74" class="st18 st24">dolor sit aconsectetuer adi</tspan><tspan x="326.9" y="74" class="st18 st24">-</tspan></text>
	<rect x="343.9" y="8793" class="st17" width="369.3" height="114.9"/>
	<text transform="matrix(1 0 0 1 343.9111 8813.002)"><tspan x="0" y="0" class="st18 st24">Lorem ipsum dolor sit amet, </tspan><tspan x="0" y="37" class="st18 st24">consectetuer Lorem ipsum </tspan><tspan x="0" y="74" class="st18 st24">dolor sit aconsectetuer adi</tspan><tspan x="326.9" y="74" class="st18 st24">-</tspan></text>
	<rect x="343.9" y="8931.2" class="st17" width="369.3" height="114.9"/>
	<text transform="matrix(1 0 0 1 343.9111 8951.2715)"><tspan x="0" y="0" class="st18 st24">Lorem ipsum dolor sit amet, </tspan><tspan x="0" y="37" class="st18 st24">consectetuer Lorem ipsum </tspan><tspan x="0" y="74" class="st18 st24">dolor sit aconsectetuer adi</tspan><tspan x="326.9" y="74" class="st18 st24">-</tspan></text>
	<g>
		<g>
			<text transform="matrix(1 0 0 1 349.8519 8197.9785)" class="st18 st25">Grado de Dificultad___ x Calificación de Jueces____</text>
		</g>
		<path class="st26" d="M1130.3,8148H369.7c-21.8,0-39.6,17.8-39.6,39.6s17.8,39.6,39.6,39.6h760.5c21.8,0,39.6-17.8,39.6-39.6
			S1152,8148,1130.3,8148z"/>
		<path class="st27" d="M1130.3,8148h-60.5c-21.8,0-39.6,17.8-39.6,39.6s17.8,39.6,39.6,39.6h60.5c21.8,0,39.6-17.8,39.6-39.6
			S1152,8148,1130.3,8148z"/>
	</g>
	<g>
		<g>
			<text transform="matrix(1 0 0 1 349.8519 9117.6006)" class="st18 st25">Grado de Dificultad___ x Calificación de Jueces____</text>
		</g>
		<path class="st26" d="M1130.3,9067.6H369.7c-21.8,0-39.6,17.8-39.6,39.6s17.8,39.6,39.6,39.6h760.5c21.8,0,39.6-17.8,39.6-39.6
			S1152,9067.6,1130.3,9067.6z"/>
		<path class="st27" d="M1130.3,9067.6h-60.5c-21.8,0-39.6,17.8-39.6,39.6s17.8,39.6,39.6,39.6h60.5c21.8,0,39.6-17.8,39.6-39.6
			S1152,9067.6,1130.3,9067.6z"/>
	</g>
	<rect x="334.5" y="9493.2" class="st17" width="830.9" height="99"/>
	<text transform="matrix(1 0 0 1 383.1737 9521.8193)"><tspan x="0" y="0" class="st18 st19">Lorem ipsum dolor sit amet, consectetuer </tspan><tspan x="-38.9" y="51" class="st18 st19">Lorem ipsum dolor sit amet, consectetuer adi</tspan><tspan x="759.2" y="51" class="st18 st19">-</tspan></text>
	<g>
		<g>
			<g>
				<text transform="matrix(1 0 0 1 416.4843 669.8912)" class="st11 st18 st28">Clavados</text>
			</g>
		</g>
	</g>
</g>
</svg>
